# AST/ASF file generated using VICON BodyLanguage
# -----------------------------------------------
:version 1.10
:name VICON
:units
  mass 1.0
  length 0.45
  angle deg
:documentation
   .ast/.asf automatically generated from VICON data using
   VICON BodyBuilder and BodyLanguage model FoxedUp or BRILLIANT.MOD
:root
   order TX TY TZ RX RY RZ
   axis XYZ
   position 0 0 0  
   orientation 0 0 0 
:bonedata
  begin
     id 1 
     name lhipjoint
     direction 0.702568 -0.596508 0.388042 
     length 2.56661 
     axis 0 0 0  XYZ
  end
  begin
     id 2 
     name lfemur
     direction 0.34202 -0.939693 0  
     length 6.58374  
     axis 0 0 20  XYZ
    dof rx ry rz
    limits (-160.0 20.0)
           (-70.0 70.0)
           (-60.0 70.0)
  end
  begin
     id 3 
     name ltibia
     direction 0.34202 -0.939693 0   
     length 6.62538   
     axis 0 0 20   XYZ
    dof rx
    limits (-10.0 170.0)
  end
  begin
     id 4 
     name lfoot
     direction 0.10455 -0.287249 0.952133   
     length 2.26699   
     axis -90 7.62852e-016 20   XYZ
    dof rx rz
    limits (-45.0 90.0)
           (-70.0 20.0)
  end
  begin
     id 5 
     name ltoes
     direction 1.53572e-011 -4.22322e-011 1   
     length 1.12949   
     axis -90 7.62852e-016 20   XYZ
    dof rx
    limits (-90.0 20.0)
  end
  begin
     id 6 
     name rhipjoint
     direction -0.728055 -0.574632 0.373811   
     length 2.66432  
     axis 0 0 0  XYZ 
  end
  begin
     id 7 
     name rfemur
     direction -0.34202 -0.939693 0   
     length 6.66732   
     axis 0 0 -20   XYZ
    dof rx ry rz
    limits (-160.0 20.0)
           (-70.0 70.0)
           (-70.0 60.0)
  end
  begin
     id 8 
     name rtibia
     direction -0.34202 -0.939693 0   
     length 6.59288   
     axis 0 0 -20   XYZ
    dof rx
    limits (-10.0 170.0)
 end
 begin
     id 9 
     name rfoot
     direction -0.119193 -0.327479 0.93731   
     length 2.38061  
     axis -90 -7.62852e-016 -20   XYZ
    dof rx rz
    limits (-45.0 90.0)
           (-20.0 70.0)
  end
  begin
     id 10 
     name rtoes
     direction -1.53547e-011 -4.21827e-011 1   
     length 1.17899   
     axis -90 -7.62852e-016 -20   XYZ
    dof rx
    limits (-90.0 20.0)
  end
  begin
     id 11 
     name lowerback
     direction -0.000416114 0.999912 -0.0132284   
     length 2.12109   
     axis 0 0 0   XYZ
    dof rx ry rz
    limits (-20.0 45.0)
           (-30.0 30.0)
           (-30.0 30.0)
  end
  begin
     id 12 
     name upperback
     direction -0.00136371 0.99809 0.0617608   
     length 2.10067   
     axis 0 0 0   XYZ
    dof rx ry rz
    limits (-20.0 45.0)
           (-30.0 30.0)
           (-30.0 30.0)
  end
  begin
     id 13 
     name thorax
     direction -3.43026e-005 0.997776 0.0666515   
     length 2.10618   
     axis 0 0 0   XYZ
    dof rx ry rz
    limits (-20.0 45.0)
           (-30.0 30.0)
           (-30.0 30.0)
  end
  begin
     id 14 
     name lowerneck
     direction 0.0398646 0.998418 0.0396592   
     length 1.83817   
     axis 0 0 0   XYZ
    dof rx ry rz
    limits (-20.0 45.0)
           (-30.0 30.0)
           (-30.0 30.0)
  end
  begin
     id 15 
     name upperneck
     direction -0.0367268 0.961527 -0.272244   
     length 1.81975   
     axis 0 0 0   XYZ
    dof rx ry rz
    limits (-20.0 45.0)
           (-30.0 30.0)
           (-30.0 30.0)
  end
  begin
     id 16
     name head
     direction -0.0182665 0.99536 -0.0944669  
     length 1.86026  
     axis 0 0 0   XYZ
    dof rx ry rz
    limits (-20.0 45.0)
           (-30.0 30.0)
           (-30.0 30.0)
  end
  begin
     id 17 
     name lclavicle
     direction 0.924239 0.361045 0.124212  
     length 3.26878  
     axis 0 0 0   XYZ
    dof ry rz
    limits (-20.0 10.0)
           (0.0 20.0)
  end
  begin
     id 18 
     name lhumerus
     direction 1 -4.48968e-011 -2.56583e-027   
     length 4.58538   
     axis 180 -30 -90   XYZ
    dof rx ry rz
    limits (-60.0 90.0)
           (-90.0 90.0)
           (-90.0 90.0)
  end
  begin
     id 19
     name lradius
     direction 1 -4.4898e-011 -5.50375e-027   
     length 2.68935   
     axis 180 -30 -90   XYZ
    dof rx
    limits (-10.0 170.0)
  end
  begin
     id 20
     name lwrist
     direction 1 -4.48939e-011 -1.48955e-026   
     length 1.34468   
     axis 9.0955e-015 90 90   XYZ
    dof ry
    limits (-180.0 0.0)
 end
  begin
     id 21 
     name lhand
     direction 1 -4.48936e-011 -2.97907e-026   
     length 0.585058   
     axis 1.90115e-014 90 90   XYZ
    dof rx rz
    limits (-90.0 90.0)
           (-45.0 45.0)
  end
  begin
     id 22 
     name lfingers
     direction 1 -4.49082e-011 -5.96235e-026   
     length 0.471689   
     axis 3.80223e-014 90 90   XYZ
    dof rx
    limits (0.0 90.0)
  end
  begin
     id 23
     name lthumb
     direction 0.707107 -6.3489e-011 0.707107   
     length 0.677253   
     axis -90 45 -3.84942e-014   XYZ
    dof rx rz
    limits (-45.0 45.0)
           (-45.0 45.0)
  end
  begin
     id 24 
     name rclavicle
     direction -0.923098 0.371783 0.0983239   
     length 3.19656  
     axis 0 0 0   XYZ 
    dof ry rz
    limits (-10.0 20.0)
           (-20.0 0.0)
  end
  begin
     id 25 
     name rhumerus
     direction -1 -4.48976e-011 -2.5492e-027  
     length 4.4745   
     axis 180 30 90   XYZ
    dof rx ry rz
    limits (-90.0 60.0)
           (-90.0 90.0)
           (-90.0 90.0)
  end
  begin
     id 26 
     name rradius
     direction -1 -4.48941e-011 -4.36555e-027   
     length 2.93896   
     axis 180 30 90   XYZ
    dof rx
    limits (-10.0 170.0)
  end
  begin
     id 27 
     name rwrist
     direction -1 -4.49044e-011 -1.49032e-026   
     length 1.46948   
     axis 9.0955e-015 -90 -90   XYZ
    dof ry
    limits (-180.0 0.0)
  end
  begin
     id 28
     name rhand
     direction -1 -4.48826e-011 -2.97749e-026   
     length 0.405092   
     axis 1.90115e-014 -90 -90   XYZ
    dof rx rz
    limits (-90.0 90.0)
           (-45.0 45.0)
  end
  begin
     id 29
     name rfingers
     direction -1 -4.49209e-011 -5.96602e-026   
     length 0.326596   
     axis 3.80223e-014 -90 -90   XYZ
    dof rx
    limits (0.0 90.0)
  end
  begin
     id 30
     name rthumb
     direction -0.707107 -6.34776e-011 0.707107   
     length 0.468928   
     axis -90 -45 3.84942e-014   XYZ
    dof rx rz
    limits (-45.0 45.0)
           (-45.0 45.0)
  end
:hierarchy
  begin
    root lhipjoint rhipjoint lowerback
    lhipjoint lfemur
    lfemur ltibia
    ltibia lfoot
    lfoot ltoes
    rhipjoint rfemur
    rfemur rtibia
    rtibia rfoot
    rfoot rtoes
    lowerback upperback
    upperback thorax
    thorax lowerneck lclavicle rclavicle
    lowerneck upperneck
    upperneck head
    lclavicle lhumerus
    lhumerus lradius
    lradius lwrist
    lwrist lhand lthumb
    lhand lfingers
    rclavicle rhumerus
    rhumerus rradius
    rradius rwrist
    rwrist rhand rthumb
    rhand rfingers
  end

#!OML:ASF H:\Punching\Project 1\Capture day 1\Session 1\female.ASF
:FULLY-SPECIFIED
:DEGREES
94
root -0.405274 15.7363 7.02083 9.57542 -6.10172 0.98445
lowerback -4.46191 -0.508918 -0.0517458
upperback -7.85082 -0.70132 -0.0384114
thorax -5.64076 -0.357082 -0.00633529
lowerneck -9.13323 5.3084 11.2119
upperneck 29.355 7.20094 -6.49494
head 11.7491 3.73967 -3.41234
rclavicle 1.43995e-014 3.37934e-015
rhumerus -44.1366 -25.3522 -58.8126
rradius 22.3513
rwrist 11.4315
rhand -11.638 -11.7712
rfingers 7.12502
rthumb 14.4058 -41.2512
lclavicle 1.43995e-014 3.37934e-015
lhumerus -47.8214 7.69036 75.6058
lradius 35.2441
lwrist -2.02979
lhand -4.38103 25.1826
lfingers 7.12502
lthumb 21.388 54.0221
rfemur -17.1017 7.4755 14.4964
rtibia 28.5446
rfoot -19.4113 -19.7708
rtoes -0.37058
lfemur -7.58925 -16.4826 -16.4452
ltibia 14.911
lfoot -15.3562 26.9655
ltoes 0.63772
95
root -0.414675 15.734 7.01809 9.59296 -6.21883 0.961885
lowerback -4.39463 -0.508194 -0.0799731
upperback -7.84959 -0.698299 0.0138011
thorax -5.67658 -0.352273 0.0643298
lowerneck -9.13348 5.34403 11.2385
upperneck 29.2045 7.26962 -6.59643
head 11.7023 3.76042 -3.44295
rclavicle -8.59744e-015 -2.08724e-015
rhumerus -43.5207 -24.9017 -59.3759
rradius 22.7513
rwrist 9.77951
rhand -12.072 -12.3963
rfingers 7.12502
rthumb 13.9876 -41.9057
lclavicle -8.59744e-015 -2.08724e-015
lhumerus -47.6067 6.30127 76.8227
lradius 35.8805
lwrist -0.895535
lhand -4.21123 25.5184
lfingers 7.12502
lthumb 21.5511 54.3393
rfemur -17.1853 7.3382 14.5502
rtibia 28.6456
rfoot -19.8697 -19.6797
rtoes -0.737711
lfemur -7.58581 -16.5792 -16.3917
ltibia 14.9345
lfoot -15.4673 27.1523
ltoes 0.707193
96
root -0.425062 15.732 7.01544 9.61503 -6.34211 0.938072
lowerback -4.33432 -0.509941 -0.110156
upperback -7.85136 -0.698537 0.0678515
thorax -5.71164 -0.348921 0.137976
lowerneck -9.11916 5.38002 11.2655
upperneck 29.0491 7.34073 -6.70123
head 11.6512 3.78227 -3.47472
rclavicle 1.15544e-014 -7.95139e-016
rhumerus -42.8576 -24.401 -60.0074
rradius 23.2056
rwrist 8.19416
rhand -12.5062 -12.9911
rfingers 7.12502
rthumb 13.5692 -42.529
lclavicle 1.15544e-014 -7.95139e-016
lhumerus -47.4097 4.84755 78.0792
lradius 36.5649
lwrist 0.254925
lhand -4.05762 25.8609
lfingers 7.12502
lthumb 21.6986 54.6649
rfemur -17.2769 7.19629 14.6099
rtibia 28.7493
rfoot -20.3385 -19.5684
rtoes -1.08355
lfemur -7.58238 -16.6743 -16.3332
ltibia 14.9531
lfoot -15.5828 27.345
ltoes 0.783975
97
root -0.436299 15.7298 7.01331 9.63397 -6.46556 0.910671
lowerback -4.27627 -0.514859 -0.138428
upperback -7.85299 -0.702962 0.12374
thorax -5.74528 -0.347696 0.212486
lowerneck -9.08512 5.4172 11.2938
upperneck 28.8845 7.41567 -6.80926
head 11.5934 3.80609 -3.50758
rclavicle -1.89094e-014 -1.13307e-014
rhumerus -42.1442 -23.8118 -60.7376
rradius 23.734
rwrist 6.6119
rhand -12.971 -13.6361
rfingers 7.12502
rthumb 13.1211 -43.2033
lclavicle -1.89094e-014 -1.13307e-014
lhumerus -47.2358 3.34713 79.3607
lradius 37.3071
lwrist 1.40417
lhand -3.90427 26.2453
lfingers 7.12502
lthumb 21.8459 55.0322
rfemur -17.3645 7.05034 14.681
rtibia 28.8556
rfoot -20.7919 -19.4565
rtoes -1.39214
lfemur -7.56758 -16.7753 -16.2693
ltibia 14.9646
lfoot -15.7077 27.5437
ltoes 0.88319
98
root -0.448399 15.7277 7.01172 9.65057 -6.58814 0.886383
lowerback -4.22264 -0.523262 -0.168705
upperback -7.85437 -0.712143 0.177501
thorax -5.77614 -0.348794 0.285922
lowerneck -9.04093 5.45579 11.3263
upperneck 28.7195 7.49317 -6.91944
head 11.5342 3.83161 -3.54176
rclavicle -1.84621e-014 1.19271e-015
rhumerus -41.3746 -23.0931 -61.5997
rradius 24.3366
rwrist 4.87688
rhand -13.6066 -14.3081
rfingers 7.12502
rthumb 12.5085 -43.9137
lclavicle -1.84621e-014 1.19271e-015
lhumerus -47.0833 1.81899 80.6492
lradius 38.101
lwrist 2.531
lhand -3.7424 26.6604
lfingers 7.12502
lthumb 22.0013 55.429
rfemur -17.4509 6.89803 14.757
rtibia 28.9668
rfoot -21.2257 -19.3564
rtoes -1.66362
lfemur -7.54164 -16.8706 -16.2071
ltibia 14.9653
lfoot -15.8337 27.7365
ltoes 0.988555
99
root -0.461309 15.7254 7.01093 9.66211 -6.70895 0.858714
lowerback -4.17157 -0.534857 -0.193593
upperback -7.85494 -0.725635 0.231014
thorax -5.80471 -0.352355 0.356123
lowerneck -8.97614 5.49613 11.3587
upperneck 28.5475 7.57422 -7.02754
head 11.4689 3.85951 -3.5749
rclavicle -1.47846e-014 -1.5704e-014
rhumerus -40.5575 -22.2359 -62.5854
rradius 25.0409
rwrist 2.99086
rhand -14.3693 -15.1816
rfingers 7.12502
rthumb 11.773 -44.8307
lclavicle -1.47846e-014 -1.5704e-014
lhumerus -46.9498 0.279706 81.9323
lradius 38.934
lwrist 3.62106
lhand -3.56255 27.0799
lfingers 7.12502
lthumb 22.174 55.8282
rfemur -17.5301 6.74358 14.846
rtibia 29.0815
rfoot -21.6297 -19.3048
rtoes -1.90918
lfemur -7.50203 -16.9592 -16.1411
ltibia 14.9596
lfoot -15.9616 27.9218
ltoes 1.09848
100
root -0.475326 15.7231 7.0106 9.67529 -6.83366 0.830661
lowerback -4.12856 -0.548213 -0.217605
upperback -7.85663 -0.741607 0.282211
thorax -5.8299 -0.35729 0.423403
lowerneck -8.90753 5.53791 11.3952
upperneck 28.3833 7.6564 -7.13374
head 11.4064 3.88886 -3.60806
rclavicle -1.19768e-014 -3.97569e-016
rhumerus -39.7144 -21.3113 -63.6288
rradius 25.816
rwrist 1.06795
rhand -15.1485 -16.018
rfingers 7.12502
rthumb 11.0215 -45.7087
lclavicle -1.19768e-014 -3.97569e-016
lhumerus -46.8326 -1.26839 83.205
lradius 39.7887
lwrist 4.65269
lhand -3.37354 27.4603
lfingers 7.12502
lthumb 22.3554 56.1869
rfemur -17.6121 6.59421 14.9446
rtibia 29.1992
rfoot -21.9994 -19.3183
rtoes -2.0234
lfemur -7.45888 -17.031 -16.0717
ltibia 14.95
lfoot -16.086 28.0973
ltoes 1.19359
101
root -0.490349 15.7207 7.01105 9.6899 -6.96125 0.797364
lowerback -4.09661 -0.563606 -0.233218
upperback -7.85943 -0.760395 0.332256
thorax -5.85006 -0.364171 0.484735
lowerneck -8.83643 5.58322 11.4427
upperneck 28.2309 7.74329 -7.24392
head 11.3497 3.92131 -3.64416
rclavicle -2.09966e-014 -2.46493e-014
rhumerus -38.8582 -20.3649 -64.6824
rradius 26.6363
rwrist -0.792268
rhand -15.8549 -16.6902
rfingers 7.12502
rthumb 10.3401 -46.416
lclavicle -2.09966e-014 -2.46493e-014
lhumerus -46.7336 -2.82655 84.4672
lradius 40.6668
lwrist 5.64488
lhand -3.17866 27.7942
lfingers 7.12502
lthumb 22.5425 56.4982
rfemur -17.6912 6.43841 15.0583
rtibia 29.3166
rfoot -22.3345 -19.4336
rtoes -1.97269
lfemur -7.41329 -17.0826 -15.9948
ltibia 14.9438
lfoot -16.2105 28.2578
ltoes 1.27806
102
root -0.506462 15.7183 7.01205 9.71289 -7.09639 0.755279
lowerback -4.08403 -0.580566 -0.237577
upperback -7.86355 -0.781293 0.383004
thorax -5.8607 -0.372783 0.540334
lowerneck -8.7662 5.63214 11.4953
upperneck 28.091 7.83446 -7.35346
head 11.2991 3.9565 -3.6805
rclavicle 1.36664e-015 4.57205e-015
rhumerus -37.9891 -19.4504 -65.7065
rradius 27.4705
rwrist -2.47402
rhand -16.3979 -17.064
rfingers 7.12502
rthumb 9.81633 -46.8152
lclavicle 1.36664e-015 4.57205e-015
lhumerus -46.6446 -4.39586 85.7205
lradius 41.5562
lwrist 6.60748
lhand -2.98524 28.0612
lfingers 7.12502
lthumb 22.7281 56.7426
rfemur -17.7728 6.27273 15.1915
rtibia 29.4316
rfoot -22.6166 -19.6893
rtoes -1.76117
lfemur -7.37481 -17.1092 -15.905
ltibia 14.9451
lfoot -16.3391 28.4049
ltoes 1.35615
